<?xml version="1.0" standalone="no"?><!-- Generator: Gravit.io --><svg xmlns="http://www.w3.org/2000/svg" xmlns:xlink="http://www.w3.org/1999/xlink" style="isolation:isolate" viewBox="0 0 24 24" width="24" height="24"><defs><clipPath id="_clipPath_EhmSQDb35t4nzcXmAh28JLEZc4rHnMY0"><rect width="24" height="24"/></clipPath></defs><g clip-path="url(#_clipPath_EhmSQDb35t4nzcXmAh28JLEZc4rHnMY0)"><path d=" M 19 0 L 5 0 C 2.239 0 0 2.239 0 5 L 0 19 C 0 21.761 2.239 24 5 24 L 19 24 C 21.762 24 24 21.761 24 19 L 24 5 C 24 2.239 21.762 0 19 0 Z  M 16 7 L 14.076 7 C 13.461 7 13 7.252 13 7.889 L 13 9 L 16 9 L 15.762 12 L 13 12 L 13 20 L 10 20 L 10 12 L 8 12 L 8 9 L 10 9 L 10 7.077 C 10 5.055 11.064 4 13.461 4 L 16 4 L 16 7 L 16 7 Z " fill="rgb(45,67,115)"/></g></svg>