<?xml version="1.0" standalone="no"?><!-- Generator: Gravit.io --><svg xmlns="http://www.w3.org/2000/svg" xmlns:xlink="http://www.w3.org/1999/xlink" style="isolation:isolate" viewBox="0 0 24 24" width="24" height="24"><defs><clipPath id="_clipPath_pujPpMuJd4HDjafaQyoa9Cuf7vnfZbuV"><rect width="24" height="24"/></clipPath></defs><g clip-path="url(#_clipPath_pujPpMuJd4HDjafaQyoa9Cuf7vnfZbuV)"><path d=" M 19 1 L 5 1 C 2.239 1 0 3.239 0 6 L 0 20 C 0 22.761 2.239 25 5 25 L 19 25 C 21.762 25 24 22.761 24 20 L 24 6 C 24 3.239 21.762 1 19 1 Z  M 8 20 L 5 20 L 5 9 L 8 9 L 8 20 Z  M 6.5 7.732 C 5.534 7.732 4.75 6.942 4.75 5.968 C 4.75 4.994 5.534 4.204 6.5 4.204 C 7.466 4.204 8.25 4.994 8.25 5.968 C 8.25 6.942 7.467 7.732 6.5 7.732 Z  M 20 20 L 17 20 L 17 14.396 C 17 11.028 13 11.283 13 14.396 L 13 20 L 10 20 L 10 9 L 13 9 L 13 10.765 C 14.396 8.179 20 7.988 20 13.241 L 20 20 Z " fill="rgb(0,123,182)"/></g></svg>