<?xml version="1.0" standalone="no"?><!-- Generator: Gravit.io --><svg xmlns="http://www.w3.org/2000/svg" xmlns:xlink="http://www.w3.org/1999/xlink" style="isolation:isolate" viewBox="0 0 24 24" width="24" height="24"><defs><clipPath id="_clipPath_O53SPymhCKwL1HTcy1nWlQ16aBcyx14s"><rect width="24" height="24"/></clipPath></defs><g clip-path="url(#_clipPath_O53SPymhCKwL1HTcy1nWlQ16aBcyx14s)"><path d=" M 19 0 L 5 0 C 2.239 0 0 2.239 0 5 L 0 19 C 0 21.761 2.239 24 5 24 L 19 24 C 21.762 24 24 21.761 24 19 L 24 5 C 24 2.239 21.762 0 19 0 Z  M 18.861 9.237 C 19.07 13.854 15.627 19.002 9.531 19.002 C 7.677 19.002 5.952 18.459 4.499 17.527 C 6.241 17.732 7.979 17.249 9.359 16.168 C 7.922 16.141 6.71 15.192 6.293 13.888 C 6.808 13.986 7.314 13.957 7.775 13.832 C 6.196 13.515 5.107 12.093 5.142 10.572 C 5.584 10.818 6.091 10.966 6.628 10.983 C 5.167 10.006 4.753 8.076 5.612 6.6 C 7.231 8.586 9.65 9.893 12.378 10.03 C 11.899 7.977 13.458 6 15.577 6 C 16.52 6 17.374 6.398 17.972 7.037 C 18.72 6.89 19.423 6.617 20.058 6.241 C 19.812 7.008 19.292 7.651 18.615 8.057 C 19.279 7.977 19.912 7.801 20.5 7.54 C 20.061 8.196 19.504 8.774 18.861 9.237 Z " fill="rgb(85,172,238)"/></g></svg>